HIERARCHY
ROOT Hips
{
  OFFSET 196.326 95.9168 97.7182
  CHANNELS 6 Xposition Yposition Zposition Zrotation Xrotation Yrotation
  JOINT LeftUpLeg
  {
    OFFSET 8.64259 1.95398 -2.38835
    CHANNELS 3 Zrotation Xrotation Yrotation
    JOINT LeftLeg
    {
      OFFSET 43.7702 0 0
      CHANNELS 3 Zrotation Xrotation Yrotation
      JOINT LeftFoot
      {
        OFFSET 40.6238 0 0
        CHANNELS 3 Zrotation Xrotation Yrotation
        JOINT LeftToeBase
        {
          OFFSET 12.7242 0 0
          CHANNELS 3 Zrotation Xrotation Yrotation
          End Site
          {
            OFFSET 0 0 0
          }
        }
      }
    }
  }
  JOINT RightUpLeg
  {
    OFFSET -8.2249 1.95398 -2.59336
    CHANNELS 3 Zrotation Xrotation Yrotation
    JOINT RightLeg
    {
      OFFSET 43.5653 0 0
      CHANNELS 3 Zrotation Xrotation Yrotation
      JOINT RightFoot
      {
        OFFSET 40.6238 0 0
        CHANNELS 3 Zrotation Xrotation Yrotation
        JOINT RightToeBase
        {
          OFFSET 12.7242 0 0
          CHANNELS 3 Zrotation Xrotation Yrotation
          End Site
          {
            OFFSET 0 0 0
          }
        }
      }
    }
  }
  JOINT Spine
  {
    OFFSET 0.165834 0.87714 6.61349
    CHANNELS 3 Zrotation Xrotation Yrotation
    JOINT Spine1
    {
      OFFSET 7.38963 1.71661e-005 0
      CHANNELS 3 Zrotation Xrotation Yrotation
      JOINT Spine2
      {
        OFFSET 11.9445 1.14441e-005 0
        CHANNELS 3 Zrotation Xrotation Yrotation
        JOINT Spine3
        {
          OFFSET 14.7254 4.19617e-005 0
          CHANNELS 3 Zrotation Xrotation Yrotation
          JOINT Spine4
          {
            OFFSET 10.9679 0 0
            CHANNELS 3 Zrotation Xrotation Yrotation
            JOINT RightShoulder
            {
              OFFSET 2.46616 -1.6653 3.69651
              CHANNELS 3 Zrotation Xrotation Yrotation
              JOINT RightArm
              {
                OFFSET 13.0012 0 0
                CHANNELS 3 Zrotation Xrotation Yrotation
                JOINT RightForeArm
                {
                  OFFSET 28.7848 1.52588e-005 0
                  CHANNELS 3 Zrotation Xrotation Yrotation
                  JOINT RightHand
                  {
                    OFFSET 26.5688 1.52588e-005 0
                    CHANNELS 3 Zrotation Xrotation Yrotation
                    End Site
                    {
                      OFFSET 0 0 0
                    }
                  }
                }
              }
            }
            JOINT LeftShoulder
            {
              OFFSET 2.38034 -1.29275 -3.75231
              CHANNELS 3 Zrotation Xrotation Yrotation
              JOINT LeftArm
              {
                OFFSET 16.3182 6.10351e-005 0
                CHANNELS 3 Zrotation Xrotation Yrotation
                JOINT LeftForeArm
                {
                  OFFSET 27.0901 0 0
                  CHANNELS 3 Zrotation Xrotation Yrotation
                  JOINT LeftHand
                  {
                    OFFSET 24.5451 1.52588e-005 0
                    CHANNELS 3 Zrotation Xrotation Yrotation
                    End Site
                    {
                      OFFSET 0 0 0
                    }
                  }
                }
              }
            }
            JOINT Neck
            {
              OFFSET 5.0226 -0.0266342 0
              CHANNELS 3 Zrotation Xrotation Yrotation
              JOINT Head
              {
                OFFSET 6.69363 2.86102e-005 0
                CHANNELS 3 Zrotation Xrotation Yrotation
                End Site
                {
                  OFFSET 0 0 0
                }
              }
            }
          }
        }
      }
    }
  }
}
MOTION
Frames:	12
Frame Time:	0.0416667
50.6091 86.6551 -304.626 2.57336 -11.6866 18.7501 171.383 62.2186 105.62 -27.267 23.5154 1.69284 29.3566 -22.2508 -8.92582 106.69 33.6526 -58.4603 16.6763 66.9519 -121.03 -141.798 74.5177 78.5774 20.9931 -1.84932 11.0744 43.746 14.9958 116.708 -0.640856 0.557467 -88.1695 25.7469 -0.153367 3.85901 14.0702 0.0164958 3.86202 -8.42292 -1.30531 3.6351 11.5897 -1.3053 3.6351 -177.127 -78.5846 5.61827 4.47304 4.52979 44.7129 -169.792 9.93302 -127.405 -42.5931 -15.2774 44.3521 -95.1972 -12.1651 52.4368 -32.8856 30.5624 6.83705 10.6298 -13.1043 -109.185 33.1725 2.56619 3.90535 29.7688 -27.3381 -51.8152 -13.4882 -7.24281 38.8601 
48.0102 89.812 -304.406 9.73483 -32.2096 9.33252 -177.488 29.9481 87.306 -4.73634 25.8661 0.360634 16.1056 -21.5209 -13.4108 106.24 39.2326 -50.5077 53.6081 85.7837 -159.61 -74.688 32.2771 19.0368 47.2009 0.949597 5.68018 71.295 27.3105 60.3321 -0.458639 2.75776 -88.6155 21.3327 -0.111569 2.95375 9.65839 0.0184813 2.95579 -12.8519 -0.993777 2.78393 7.16071 -0.993773 2.78393 126.547 -72.0633 -52.7008 10.9813 -5.37231 43.6084 -171.7 2.13622 -128.323 -49.0795 -17.5567 41.8274 -98.2252 -25.4913 55.5135 -32.0359 30.1656 8.93716 14.9749 -16.8773 -115.304 31.4636 2.91138 5.47082 33.399 -15.4834 -30.1737 -16.1935 -3.74601 26.6381 
46.0203 90.3159 -303.379 9.81401 -55.7618 1.33808 -179.197 3.86132 90.7975 -6.83402 28.594 0.281076 20.6735 -18.745 -8.5053 98.2655 44.8845 -35.5076 174.611 69.8027 88.1401 -63.9501 3.22626 1.28388 70.7058 -0.722581 -0.650927 58.9341 2.67877 14.2264 -0.697078 5.10393 -88.8654 16.6681 -0.798291 2.39701 4.99502 -0.69205 2.4298 -17.528 -1.48165 2.04652 2.48466 -1.48165 2.04652 97.3947 -60.09 -88.6269 21.4806 -6.98208 45.8382 -173.559 -4.73621 -130.47 -58.7495 -20.3496 37.6097 -98.7711 -33.7513 59.0382 -35.5429 26.395 11.7372 17.127 -15.7292 -112.825 32.4745 3.07167 5.68243 23.9836 -2.35017 -12.0353 -6.71323 1.89134 12.7271 
46.1659 89.6758 -300.921 6.54279 -73.6859 3.84472 -175.359 -0.0751565 90.1303 -26.0377 24.7246 0.647017 33.7416 -12.5156 -0.904412 91.8797 43.0357 -31.8028 171.741 49.4134 95.6423 -61.8931 3.3498 1.8461 63.007 -0.87102 -0.364344 57.9151 4.20625 11.944 -0.955945 7.11343 -89.824 12.6648 -1.81425 0.55128 0.99507 -1.78822 0.630607 -21.5514 -1.89606 -0.0196611 -1.53871 -1.89606 -0.0196713 85.5835 -52.7434 -106.712 26.0518 -3.78649 43.7187 -167.811 -11.7996 -124.536 -70.2887 -17.0107 22.5483 -97.5401 -37.0896 62.6702 -37.9146 20.6562 12.6473 14.2032 -10.1723 -105.065 33.0727 2.9974 5.2761 17.311 3.36137 -2.74514 0.395442 4.45603 6.62585 
46.7914 89.3953 -295.409 25.2839 -79.7761 25.2433 -176.093 5.1569 92.9017 -50.4908 16.82 2.39767 42.9978 -7.14103 6.25026 89.6636 40.6174 -33.3015 170.242 35.6437 97.0245 -59.6977 9.02811 3.95243 70.0904 -3.66517 -1.89643 48.7895 4.02513 24.0256 -1.32872 7.92356 -90.2111 11.0274 -2.74286 -0.157051 -0.640693 -2.7471 -0.0360838 -23.1969 -2.56877 -0.974672 -3.18419 -2.56876 -0.974675 80.2313 -52.5915 -114.55 24.4181 -2.08728 38.5285 -161.115 -14.7654 -119.106 -73.0139 -11.9558 12.9074 -96.9945 -38.7146 64.2614 -39.0225 16.2036 13.6827 10.6897 -5.77988 -93.5905 32.1339 2.54946 4.11626 13.5876 4.21187 -0.710787 4.6248 4.84104 5.54753 
46.8804 88.2032 -289.018 16.7504 -78.5668 18.1293 -175.977 19.8665 93.8257 -66.7132 11.3671 2.02748 47.2838 -3.19927 13.0026 84.0483 37.6189 -32.0728 173.036 32.1248 99.3993 -59.2187 12.6899 2.85071 75.8517 -5.62476 -2.65614 51.3922 4.38597 21.3719 -0.859871 7.77699 -90.4234 11.3146 -1.90834 -0.652147 -0.355054 -1.93519 -0.567504 -22.8974 -1.62411 -1.19563 -2.8848 -1.62411 -1.19564 81.494 -52.6221 -112.714 24.5807 -3.29622 30.1705 -157.193 -15.7687 -115.928 -66.387 -9.01305 10.3139 -98.2369 -40.3197 62.9026 -39.2584 13.3672 14.8905 10.776 -3.7124 -82.1416 35.6832 3.45865 5.93929 13.7562 3.03083 1.0705 5.31088 3.07292 3.70674 
47.1674 87.5098 -282.397 -11.1447 -74.0069 -8.12919 -172.193 36.9489 94.5305 -76.3038 6.55941 1.05688 49.9272 -1.67758 12.7216 68.3974 31.2028 -23.1373 178.106 31.0538 101.997 -55.5347 13.2466 -0.302605 77.5956 -7.33038 -3.30517 57.0742 5.79046 21.1509 0.113582 7.40112 -90.487 12.0658 -0.00444902 -0.975664 0.394191 -0.0473832 -0.974534 -22.1362 0.288937 -0.931923 -2.12356 0.288935 -0.931932 80.6159 -51.1681 -114.534 24.6 -2.34082 21.6801 -153.524 -14.1971 -112.471 -56.1918 -6.62093 8.82661 -99.1254 -42.1973 62.2747 -38.6766 10.3226 17.3116 8.77188 0.794529 -73.4777 40.4023 3.19894 3.99345 17.2379 1.76252 2.32797 2.87027 1.26402 2.77883 
46.2375 87.316 -275.048 -20.2551 -73.2137 -21.8471 -167.128 46.1595 89.107 -77.618 8.22031 -0.253854 51.2643 -1.24398 12.6841 53.2819 25.7648 -3.23887 -179.882 24.3889 97.8524 -52.2097 12.3347 -2.74851 80.3166 -8.3974 -3.59265 59.1689 6.1573 20.3286 0.563217 7.44073 -89.8289 12.0005 1.20081 0.215999 0.330235 1.20916 0.162934 -22.2098 1.08035 0.566945 -2.19713 1.08036 0.566952 82.4923 -47.0929 -113.269 29.3989 -3.76173 13.7341 -146.43 -13.4755 -106.219 -49.6352 -3.30464 2.32091 -98.7092 -42.509 63.0547 -40.0532 8.52461 24.7135 3.15207 -2.33692 -75.3204 38.7939 3.02557 3.90627 19.1065 0.935072 3.57361 1.46032 -0.0824072 1.38326 
45.7775 88.3431 -266.545 -25.5359 -73.7658 -29.7389 -164.698 50.5571 86.2249 -71.4316 13.0914 -1.8919 52.6777 -0.923757 13.1879 52.9599 27.3466 2.51196 -179.591 15.2371 94.1031 -45.9757 7.91249 -4.23292 72.8538 -5.96622 -2.93657 66.4483 8.53263 22.0687 1.01471 7.43993 -89.4052 11.9854 2.29804 0.936984 0.316184 2.33705 0.834875 -22.2283 1.9102 1.58446 -2.21571 1.91021 1.58446 84.5814 -44.1733 -111.076 33.1683 -6.34238 8.23407 -128.693 -6.17678 -95.7481 -43.0089 1.86901 -13.0522 -96.2825 -41.143 66.3772 -43.2194 9.1797 32.5388 5.59008 -2.41696 -80.5027 37.7563 3.19 4.59562 17.6577 -0.958561 3.61331 1.90518 -1.93537 0.64472 
45.907 90.2178 -256.781 -32.0923 -72.7239 -36.0029 -164.708 52.2893 87.76 -59.0777 16.6771 -3.90946 53.2441 -1.8401 12.0047 56.3501 29.7744 -0.73807 -179.018 7.0784 91.2301 -37.4323 0.549529 -5.3718 63.006 -3.29666 -1.76348 57.2337 8.45404 33.8382 1.47657 7.37441 -89.3725 12.1173 3.23184 0.893737 0.450167 3.26803 0.750474 -22.1087 2.81375 1.82432 -2.09602 2.81375 1.82432 86.5008 -41.0462 -109.055 34.8051 -12.5444 3.15009 -99.7562 0.818745 -88.4392 -39.582 6.76105 -28.5324 -94.3572 -40.4155 69.2399 -46.4905 9.81351 37.6818 4.70266 -3.13134 -82.4331 36.7973 2.73925 3.5962 18.3472 -2.14157 5.28613 1.25207 -3.69206 -0.640403 
46.7066 92.028 -246.392 -25.5655 -72.86 -31.4723 -167.427 51.4497 86.0199 -41.9604 18.4401 -5.15017 50.9662 -4.44687 9.6743 52.8947 24.6993 -5.3152 178.406 -0.206533 89.9279 -30.0966 -11.7925 -5.62476 44.0782 3.30914 3.174 45.4194 3.44574 26.0216 1.52655 7.20404 -89.1029 12.4461 3.45977 1.39567 0.779119 3.51784 1.2419 -21.7775 2.88038 2.37143 -1.76483 2.88038 2.37143 87.1645 -40.0422 -108.287 35.3671 -18.0623 1.36941 -67.6045 12.8039 -93.4049 -31.3224 6.95002 -33.0694 -94.9353 -38.9161 67.7474 -49.1608 7.28222 41.4644 2.08496 -3.82285 -82.5361 38.3943 1.93333 1.0624 18.8379 -3.5245 5.02172 -0.129714 -5.00827 -1.42301 
47.2251 93.4915 -236.003 -21.1812 -73.8697 -26.3136 -170.898 47.6978 87.3491 -23.8888 21.2785 -5.20702 46.4488 -8.26345 6.68526 48.9198 21.1067 -4.07445 177.894 -3.37638 86.3783 -27.5613 -12.6241 -6.07849 33.1781 6.23507 7.05323 31.9478 -0.278024 12.1774 1.63411 7.12632 -89.1814 12.6053 3.63644 1.21063 0.939031 3.68619 1.04922 -21.6233 3.10442 2.24828 -1.61063 3.10442 2.24829 87.8083 -39.4676 -107.38 35.5521 -21.8488 1.51061 -41.9214 16.1104 -100.932 -26.342 3.65405 -21.2662 -95.2197 -37.6477 66.7919 -51.2557 5.63038 43.0392 1.90423 -3.92459 -83.0629 38.2189 1.89095 0.98546 19.1246 -4.66291 5.10877 -0.984707 -6.16433 -2.03935 
